<svg id="Group_43" data-name="Group 43" xmlns="http://www.w3.org/2000/svg" xmlns:xlink="http://www.w3.org/1999/xlink" width="205.24" height="114.417" viewBox="0 0 205.24 114.417">
  <defs>
    <clipPath id="clip-path">
      <rect id="Rectangle_11884" data-name="Rectangle 11884" width="205.24" height="114.416" fill="none"/>
    </clipPath>
  </defs>
  <path id="Path_58" data-name="Path 58" d="M35.028,20.982,53.2,52.456l6.056-10.491L47.141,20.982ZM95.6,0,83.486,20.982,77.427,31.474,65.315,10.491H77.427L83.486,0H22.91l6.059,10.491H53.2L77.427,52.456l6.059-10.491L89.54,31.474,107.714,0Z" transform="translate(38.186)" fill="#fff"/>
  <g id="Group_42" data-name="Group 42" transform="translate(0 0.001)">
    <g id="Group_41" data-name="Group 41" clip-path="url(#clip-path)">
      <path id="Path_59" data-name="Path 59" d="M16.641,38.391a5.039,5.039,0,0,1,1.373-.216c.157,0,.275.1.333.509l1.235,7.3c.333,2.059.608,3.509.805,4.451a6.226,6.226,0,0,1-1.355.179.391.391,0,0,1-.432-.395c-.195-1.1-.312-2-.568-3.784l-.9-5.9c-.707,1.92-2.2,5.726-3.531,9.315a.733.733,0,0,1-.509.528,4.19,4.19,0,0,1-.843.117c-.608-1.861-2.453-6.942-3.512-9.923-.429,2.824-1.293,7.766-1.608,9.747-.059.216-.136.3-.312.3a2.8,2.8,0,0,1-1.2-.179c.392-1.96,1.333-7.158,2.2-11.569l-.139-.472a6.027,6.027,0,0,1,1.509-.216,7.933,7.933,0,0,1,1,2.139l2.824,7.432c1.293-3.216,2.824-7,3.667-9Z" transform="translate(9.366 63.629)" fill="#fff"/>
      <path id="Path_60" data-name="Path 60" d="M19.155,47.316c.04.8-.451,1.216-1.253,1.216A1.371,1.371,0,0,1,16.528,47.3a3.5,3.5,0,0,1-2.509,1.235,2.214,2.214,0,0,1-2.275-2.216c0-2.117,2.744-2.688,3.8-2.923.355-.077.725-.157.981-.195v-.589a1.643,1.643,0,0,0-1.688-1.8,3.711,3.711,0,0,0-2,.723c-.528.216-.8-.235-.843-.723a5.272,5.272,0,0,1,3.216-1.315c1.981,0,2.941,1.411,2.941,3.275,0,.843-.077,2.725-.059,3.923a.609.609,0,0,0,.667.627,2.22,2.22,0,0,0,.373-.04ZM14.7,47.258a2.053,2.053,0,0,0,1.667-.923,1.041,1.041,0,0,0,.139-.645V44.159c-1.589.253-3.1.784-3.1,1.883A1.206,1.206,0,0,0,14.7,47.258" transform="translate(19.575 65.824)" fill="#fff"/>
      <path id="Path_61" data-name="Path 61" d="M15.031,40.217a1.576,1.576,0,0,1,1.059-.725c.589,0,.941.707.941,1.96.608-1.293,1.472-1.96,2.373-1.96a1.365,1.365,0,0,1,1,.411,2.028,2.028,0,0,1-.373,1.1.47.47,0,0,1-.549.139,1.588,1.588,0,0,0-.627-.1c-.432,0-1.08.392-1.491,1.352a2.651,2.651,0,0,0-.216,1.059v4.414c0,.3-.059.432-.352.472a11.406,11.406,0,0,1-1.373.077c.059-.707.059-1.864.059-3.608V41.532c0-.608-.1-1.021-.451-1.237Z" transform="translate(25.054 65.824)" fill="#fff"/>
      <path id="Path_62" data-name="Path 62" d="M22.934,47.694a1.061,1.061,0,0,1-.333,1.117,3.072,3.072,0,0,1-1.843.531,2.273,2.273,0,0,1-2.432-2.589V41.694c-.667,0-.941-.216-.941-.413A12.226,12.226,0,0,1,19.091,39.5a1.79,1.79,0,0,1,1-.491c-.04.629-.08,1.117-.08,1.531h3.117c-.195.981-.605,1.059-.96,1.077a18.564,18.564,0,0,1-2.176.059,49.338,49.338,0,0,0,0,4.944c.1,1.176.744,1.469,1.411,1.469a2.9,2.9,0,0,0,1.472-.411Z" transform="translate(28.976 65.014)" fill="#fff"/>
      <path id="Path_63" data-name="Path 63" d="M27.324,47.316c.043.8-.448,1.216-1.253,1.216A1.366,1.366,0,0,1,24.7,47.3a3.506,3.506,0,0,1-2.512,1.235,2.214,2.214,0,0,1-2.275-2.216c0-2.117,2.744-2.688,3.806-2.923.352-.077.723-.157.981-.195v-.589a1.645,1.645,0,0,0-1.691-1.8,3.719,3.719,0,0,0-2,.723c-.528.216-.8-.235-.843-.723a5.273,5.273,0,0,1,3.219-1.315c1.981,0,2.939,1.411,2.939,3.275,0,.843-.077,2.725-.059,3.923a.61.61,0,0,0,.667.627,2.162,2.162,0,0,0,.373-.04Zm-4.448-.059a2.061,2.061,0,0,0,1.667-.923,1.062,1.062,0,0,0,.136-.645V44.159c-1.589.253-3.1.784-3.1,1.883a1.207,1.207,0,0,0,1.3,1.216" transform="translate(33.191 65.824)" fill="#fff"/>
      <path id="Path_64" data-name="Path 64" d="M33.637,38.647c.568,1.765,1.725,5.824,2.765,9.67,1.608-4.982,2.864-8.71,3.294-10.142a5.958,5.958,0,0,1,.981.12c.315.077.392.253.235.765-1.155,3.51-2.608,7.531-3.784,10.747-.157.411-.256.587-.432.7a3.235,3.235,0,0,1-1.136.216c-.491-1.784-1.608-5.766-2.765-9.784-.608,2.077-2.157,7.118-2.648,8.8-.136.472-.256.688-.491.805a3.2,3.2,0,0,1-1.059.176c-1.235-3.942-2.549-8.414-4-12.179a4.3,4.3,0,0,1,1.451-.373c.293,0,.392.2.725,1.315.685,2.237,1.747,5.608,2.608,8.787.549-1.96,1.648-5.688,2.765-9.278a4.362,4.362,0,0,0-.1-.549,3.193,3.193,0,0,1,1.216-.275c.2,0,.275.157.373.472" transform="translate(40.998 63.629)" fill="#fff"/>
      <path id="Path_65" data-name="Path 65" d="M33.223,38.959a.955.955,0,0,1-.941,1A.889.889,0,0,1,31.34,39a.981.981,0,0,1,.979-1,.88.88,0,0,1,.9.96m-.1,11.355c0,.352-.1.451-.392.491a9.8,9.8,0,0,1-1.315.1c.021-.787.059-1.923.059-3.08V44.509c0-1.195-.037-1.8-.077-2.216a6.451,6.451,0,0,1,1.451-.195c.2,0,.275.1.275,1.216Z" transform="translate(52.237 63.336)" fill="#fff"/>
      <path id="Path_66" data-name="Path 66" d="M37.866,43.016c.04.352-.195.9-.645.883a3.383,3.383,0,0,0-1.432-.373,1.191,1.191,0,0,0-1.333,1.117A1.313,1.313,0,0,0,35.3,45.8c.509.275,1.176.568,1.747.9a2.211,2.211,0,0,1,1.275,1.979c0,1.864-1.629,2.707-3.2,2.707A3.646,3.646,0,0,1,33,50.8a.62.62,0,0,1-.333-.512,1.167,1.167,0,0,1,.392-.821,3.963,3.963,0,0,0,2.176.725c.981,0,1.491-.491,1.491-1.179,0-.469-.275-.843-.96-1.195-.531-.275-1.021-.491-1.491-.747a2.4,2.4,0,0,1-1.373-2.157,2.71,2.71,0,0,1,2.941-2.568,3.022,3.022,0,0,1,2.019.667m-.352-4.766c.117.1.117.176-.059.392a33.839,33.839,0,0,0-2.1,2.707,1.554,1.554,0,0,1-.528-.315c-.08-.1-.1-.216.037-.549.315-.763,1.237-2.685,1.589-2.707a1.659,1.659,0,0,1,1.059.472" transform="translate(54.456 62.968)" fill="#fff"/>
      <path id="Path_67" data-name="Path 67" d="M41.387,43.082c0-1.509-.707-2.275-1.824-2.275A2.969,2.969,0,0,0,37.347,42v5.843c0,.392-.077.451-.411.491a9.7,9.7,0,0,1-1.315.077c.04-.7.059-1.861.059-3.608V41.492c0-.725-.077-1.04-.333-1.235V40.18a1.563,1.563,0,0,1,1.077-.688c.608,0,.787.9.845,1.472a4.349,4.349,0,0,1,2.9-1.472c2.256,0,2.864,1.688,2.864,3.571v2.744c0,1.139.04,1.963.077,2.451a9.9,9.9,0,0,1-1.451.157c-.216,0-.293-.1-.293-.275Z" transform="translate(58.916 65.824)" fill="#fff"/>
      <path id="Path_68" data-name="Path 68" d="M41.083,38.959a.955.955,0,0,1-.941,1A.889.889,0,0,1,39.2,39a.981.981,0,0,1,.981-1,.88.88,0,0,1,.9.96m-.1,11.355c0,.352-.1.451-.392.491a9.8,9.8,0,0,1-1.315.1c.021-.787.059-1.923.059-3.08V44.509c0-1.195-.037-1.8-.077-2.216a6.451,6.451,0,0,1,1.451-.195c.2,0,.275.1.275,1.216Z" transform="translate(65.339 63.336)" fill="#fff"/>
      <path id="Path_69" data-name="Path 69" d="M47.5,46.77a1.744,1.744,0,0,1-.747,1.333,4.354,4.354,0,0,1-1.923.429c-2.725,0-4.216-1.627-4.216-4.374,0-2.469,1.491-4.667,4.08-4.667a3.11,3.11,0,0,1,3.235,3.237,2.869,2.869,0,0,1-.059.608c-.077.333-1,.587-1.685.685a37.4,37.4,0,0,1-3.883.059,2.86,2.86,0,0,0,2.96,3.139,5.544,5.544,0,0,0,2.2-.491Zm-5.139-3.747c1.411.059,3.176.019,3.531,0a.4.4,0,0,0,.411-.413,1.82,1.82,0,0,0-1.824-2.1c-1,0-1.96.883-2.117,2.509" transform="translate(67.704 65.824)" fill="#fff"/>
      <path id="Path_70" data-name="Path 70" d="M45.5,39.844c.589,1.824,1.216,3.864,1.96,6.512.864-2.608,1.315-3.9,1.963-5.846-.04-.157-.1-.373-.139-.491a3.858,3.858,0,0,1,1.2-.312c.235,0,.315.235.491.8.373,1.333.96,3.176,1.744,5.747,1.333-3.942,1.923-5.766,2.216-6.766a2.872,2.872,0,0,1,1.1.235c.216.136.216.411-.04,1.1-.861,2.411-1.528,4.256-2.528,6.9-.139.392-.235.549-.531.648a5.587,5.587,0,0,1-1,.157c-.744-2.549-1.176-3.864-1.92-6.275-.373,1.195-1.531,4.432-1.9,5.55-.117.312-.216.469-.451.549a5.839,5.839,0,0,1-1.021.176c-.389-1.2-1.077-3.432-1.821-5.571-.571-1.608-.923-2.509-1.139-3.019a3.588,3.588,0,0,1,1.432-.451c.216,0,.315.117.392.352" transform="translate(72.802 65.824)" fill="#fff"/>
      <path id="Path_71" data-name="Path 71" d="M53.883,40.159c.04.352-.2.9-.648.883a3.363,3.363,0,0,0-1.432-.373,1.191,1.191,0,0,0-1.333,1.117,1.313,1.313,0,0,0,.843,1.157c.512.275,1.179.568,1.747.9a2.207,2.207,0,0,1,1.275,1.979c0,1.864-1.627,2.707-3.2,2.707a3.646,3.646,0,0,1-2.117-.587.62.62,0,0,1-.333-.512,1.189,1.189,0,0,1,.392-.824,3.952,3.952,0,0,0,2.176.728c.981,0,1.491-.491,1.491-1.179,0-.469-.275-.843-.96-1.195-.531-.275-1.019-.491-1.491-.747A2.4,2.4,0,0,1,48.92,42.06a2.711,2.711,0,0,1,2.941-2.568,3.029,3.029,0,0,1,2.021.667" transform="translate(81.148 65.824)" fill="#fff"/>
      <path id="Path_72" data-name="Path 72" d="M53.161,46.587c1.216-1.117,3.451-3.531,4.136-4.275a3.917,3.917,0,0,1,1,.117c.352.117.392.253-.157.843-.805.864-2.1,2.08-3.2,3.157A47.44,47.44,0,0,0,59,51l-.019.061a2.89,2.89,0,0,1-1.216.213,1.455,1.455,0,0,1-1.2-.605,50.455,50.455,0,0,1-3.411-3.923v3.9c0,.392-.117.491-.472.531a11.041,11.041,0,0,1-1.235.059c.04-.784.059-1.941.059-3.59v-7.4c0-1.176-.04-1.763-.077-2.176a4.944,4.944,0,0,1,1.451-.275c.195,0,.275.1.275,1.275Z" transform="translate(85.733 63.004)" fill="#fff"/>
      <path id="Path_73" data-name="Path 73" d="M61.957,47.316c.04.8-.451,1.216-1.253,1.216A1.371,1.371,0,0,1,59.33,47.3a3.5,3.5,0,0,1-2.512,1.235,2.212,2.212,0,0,1-2.272-2.216c0-2.117,2.744-2.688,3.8-2.923.352-.077.725-.157.981-.195v-.589a1.643,1.643,0,0,0-1.688-1.8,3.711,3.711,0,0,0-2,.723c-.528.216-.8-.235-.843-.723a5.265,5.265,0,0,1,3.216-1.315c1.981,0,2.941,1.411,2.941,3.275,0,.843-.077,2.725-.059,3.923a.609.609,0,0,0,.667.627,2.22,2.22,0,0,0,.373-.04Zm-4.451-.059a2.053,2.053,0,0,0,1.667-.923,1.041,1.041,0,0,0,.139-.645V44.159c-1.589.253-3.1.784-3.1,1.883a1.206,1.206,0,0,0,1.293,1.216" transform="translate(90.917 65.824)" fill="#fff"/>
      <path id="Path_74" data-name="Path 74" d="M68.457,47.207a14.526,14.526,0,0,0-.1-2.235,8.554,8.554,0,0,1,1.509-.293c.216,0,.315.115.315.528V49.7a6.407,6.407,0,0,1-1.373.784,8.97,8.97,0,0,1-2.685.451c-3.451,0-6.806-1.608-6.806-6.334,0-3.982,3.08-6.512,6.883-6.512a6.222,6.222,0,0,1,3.982,1.12c0,.547-.432,1.019-.9.9a6.574,6.574,0,0,0-3.179-.744,4.736,4.736,0,0,0-4.9,5.1,4.927,4.927,0,0,0,5.238,5.315,5.294,5.294,0,0,0,2.019-.373Z" transform="translate(98.871 63.483)" fill="#fff"/>
      <path id="Path_75" data-name="Path 75" d="M66.164,38.959a.955.955,0,0,1-.941,1,.889.889,0,0,1-.941-.96.981.981,0,0,1,.979-1,.88.88,0,0,1,.9.96m-.1,11.355c0,.352-.1.451-.395.491a9.76,9.76,0,0,1-1.315.1c.019-.787.059-1.923.059-3.08V44.509c0-1.195-.04-1.8-.077-2.216A6.451,6.451,0,0,1,65.79,42.1c.195,0,.277.1.277,1.216Z" transform="translate(107.144 63.336)" fill="#fff"/>
      <path id="Path_76" data-name="Path 76" d="M65.538,47.8c.648-.923,3.509-5.08,4.55-6.982h-3.2c-.821,0-1.213-.117-1.155-.413a1.942,1.942,0,0,1,.528-.88c.237.136.589.157,1.707.157h4.139a3,3,0,0,1-.3,1.155c-.333.707-2.352,3.9-3.9,6.256a31.363,31.363,0,0,0,4.747,0,1.616,1.616,0,0,1-.512.981c-.293.2-.843.235-2.528.235a24.186,24.186,0,0,1-3.864-.176Z" transform="translate(109.239 65.874)" fill="#fff"/>
      <path id="Path_77" data-name="Path 77" d="M75.972,47.316c.04.8-.451,1.216-1.253,1.216A1.371,1.371,0,0,1,73.345,47.3a3.5,3.5,0,0,1-2.512,1.235,2.212,2.212,0,0,1-2.272-2.216c0-2.117,2.744-2.688,3.8-2.923.352-.077.725-.157.981-.195v-.589a1.643,1.643,0,0,0-1.688-1.8,3.711,3.711,0,0,0-2,.723c-.528.216-.8-.235-.843-.723a5.265,5.265,0,0,1,3.216-1.315c1.981,0,2.941,1.411,2.941,3.275,0,.843-.077,2.725-.059,3.923a.609.609,0,0,0,.667.627,2.22,2.22,0,0,0,.373-.04Zm-4.451-.059a2.053,2.053,0,0,0,1.667-.923,1.043,1.043,0,0,0,.136-.645V44.159c-1.587.253-3.1.784-3.1,1.883a1.206,1.206,0,0,0,1.293,1.216" transform="translate(114.277 65.824)" fill="#fff"/>
      <path id="Path_78" data-name="Path 78" d="M10.384,48.027H7.3L0,27.037H4.341L9.032,41.326,14.161,26.85h2.267l4.846,14.475,5.035-14.289h4.342l-7.771,20.99H19.793L15.2,34.717Z" transform="translate(0 44.753)" fill="#fff"/>
      <path id="Path_79" data-name="Path 79" d="M22.6,29.957h3.84V43.584H22.6V41.822a4.887,4.887,0,0,1-4.184,2.2c-4.184,0-6.955-3.272-6.955-7.27,0-4.027,2.739-7.238,6.766-7.238a4.932,4.932,0,0,1,4.374,2.2Zm-7.174,6.8A3.777,3.777,0,1,0,19.2,32.917a3.731,3.731,0,0,0-3.776,3.838" transform="translate(19.095 49.198)" fill="#fff"/>
      <path id="Path_80" data-name="Path 80" d="M18.441,29.957h3.84V32a4.588,4.588,0,0,1,1.7-1.888,4.16,4.16,0,0,1,2.264-.6,4.725,4.725,0,0,1,1.637.315l-.5,3.587a2.879,2.879,0,0,0-1.792-.5,3.136,3.136,0,0,0-2.549,1.1,4.672,4.672,0,0,0-.755,3.021v6.544h-3.84Z" transform="translate(30.737 49.198)" fill="#fff"/>
      <path id="Path_81" data-name="Path 81" d="M30.535,33.2a3.191,3.191,0,0,0-2.235-.912c-.912,0-1.477.44-1.477,1.1,0,.347.157.88,1.227,1.227l.912.283a6.993,6.993,0,0,1,3.462,1.952,3.956,3.956,0,0,1,.693,2.267A4.524,4.524,0,0,1,31.6,42.575a5.715,5.715,0,0,1-4.091,1.448,6.882,6.882,0,0,1-5.286-2.264l2.013-2.331A4.217,4.217,0,0,0,27.263,41c1.069,0,1.888-.533,1.888-1.477a1.516,1.516,0,0,0-1.2-1.384l-.88-.315a7.326,7.326,0,0,1-2.925-1.637,3.644,3.644,0,0,1-1.04-2.611,4.05,4.05,0,0,1,1.416-3.085,5.637,5.637,0,0,1,3.558-.976,6.807,6.807,0,0,1,4.342,1.448Z" transform="translate(37.05 49.196)" fill="#fff"/>
      <path id="Path_82" data-name="Path 82" d="M33.516,40.035h7.206v3.272H26.782l7.742-10.353H27.977V29.682H41.258Z" transform="translate(44.641 49.473)" fill="#fff"/>
      <path id="Path_83" data-name="Path 83" d="M38.066,35.866V46.218h-3.84V35.866H32.717V32.594h1.509V27.935h3.84v4.659h2.643v3.272Z" transform="translate(54.532 46.561)" fill="#fff"/>
      <path id="Path_84" data-name="Path 84" d="M47.348,29.957h3.84V43.584h-3.84V41.822a4.887,4.887,0,0,1-4.184,2.2c-4.184,0-6.955-3.272-6.955-7.27,0-4.027,2.739-7.238,6.766-7.238a4.935,4.935,0,0,1,4.374,2.2Zm-7.174,6.8a3.777,3.777,0,1,0,3.776-3.838,3.731,3.731,0,0,0-3.776,3.838" transform="translate(60.353 49.198)" fill="#fff"/>
      <path id="Path_85" data-name="Path 85" d="M47.977,35.866V46.218H44.139V35.866H42.627V32.594h1.512V27.935h3.838v4.659h2.643v3.272Z" transform="translate(71.051 46.561)" fill="#fff"/>
      <path id="Path_86" data-name="Path 86" d="M57.326,30.446V47.911H53.235V30.446h-4.72V26.92H62.046v3.526Z" transform="translate(80.864 44.87)" fill="#fff"/>
      <path id="Path_87" data-name="Path 87" d="M64.526,29.957h3.84V43.584h-3.84V41.822a4.887,4.887,0,0,1-4.184,2.2c-4.184,0-6.955-3.272-6.955-7.27,0-4.027,2.739-7.238,6.766-7.238a4.932,4.932,0,0,1,4.374,2.2Zm-7.174,6.8a3.777,3.777,0,1,0,3.776-3.838,3.731,3.731,0,0,0-3.776,3.838" transform="translate(88.985 49.198)" fill="#fff"/>
      <path id="Path_88" data-name="Path 88" d="M60.372,34.934h3.84V36.7a5,5,0,0,1,4.216-2.2,5.212,5.212,0,0,1,4.027,1.667A5.742,5.742,0,0,1,73.525,40v8.558H69.687V41.134a3.9,3.9,0,0,0-.725-2.675,2.458,2.458,0,0,0-1.792-.693,2.618,2.618,0,0,0-2.36,1.195,4.707,4.707,0,0,0-.6,2.645v6.952h-3.84Zm11.486-6.64-4.72,4.216-1.763-1.259,3.715-4.72Z" transform="translate(100.628 44.221)" fill="#fff"/>
      <path id="Path_89" data-name="Path 89" d="M77.363,34.111a4.428,4.428,0,0,0-3.147-1.195,3.661,3.661,0,0,0-3.84,3.838,3.8,3.8,0,0,0,3.966,3.872,4.446,4.446,0,0,0,3.021-1.2v3.747a7.808,7.808,0,0,1-3.526.848,7.694,7.694,0,0,1-5.254-1.981,6.992,6.992,0,0,1-2.171-5.224,7.021,7.021,0,0,1,7.267-7.3,8.155,8.155,0,0,1,3.683.819Z" transform="translate(110.697 49.196)" fill="#fff"/>
      <path id="Path_90" data-name="Path 90" d="M82.482,29.957h3.84V43.584h-3.84V41.822a4.887,4.887,0,0,1-4.184,2.2c-4.184,0-6.955-3.272-6.955-7.27,0-4.027,2.739-7.238,6.766-7.238a4.932,4.932,0,0,1,4.374,2.2Zm-7.174,6.8a3.777,3.777,0,1,0,3.776-3.838,3.731,3.731,0,0,0-3.776,3.838" transform="translate(118.914 49.198)" fill="#fff"/>
    </g>
  </g>
</svg>
