<svg id="Group_3" data-name="Group 3" xmlns="http://www.w3.org/2000/svg" xmlns:xlink="http://www.w3.org/1999/xlink" width="238.24" height="40.246" viewBox="0 0 238.24 40.246">
  <defs>
    <clipPath id="clip-path">
      <rect id="Rectangle_1" data-name="Rectangle 1" width="238.24" height="40.245" fill="none"/>
    </clipPath>
  </defs>
  <path id="Path_1" data-name="Path 1" d="M9.293,16.1,23.238,40.245,27.883,32.2,18.59,16.1ZM55.768,0l-9.3,16.1-4.648,8.051-9.293-16.1h9.295L46.471,0H0L4.646,8.049H23.238l18.586,32.2L46.471,32.2l4.646-8.047L65.061,0Z" fill="#fff"/>
  <g id="Group_2" data-name="Group 2" transform="translate(0 0.001)">
    <g id="Group_1" data-name="Group 1" clip-path="url(#clip-path)">
      <path id="Path_2" data-name="Path 2" d="M53.556,14.026a3.866,3.866,0,0,1,1.054-.166c.121,0,.211.076.256.391l.947,5.6c.256,1.58.466,2.693.618,3.415a4.777,4.777,0,0,1-1.039.137.3.3,0,0,1-.331-.3c-.149-.841-.239-1.534-.436-2.9l-.692-4.528c-.542,1.473-1.686,4.393-2.709,7.147a.562.562,0,0,1-.391.405,3.215,3.215,0,0,1-.647.09C49.72,21.88,48.3,17.983,47.492,15.7c-.329,2.167-.992,5.958-1.234,7.478-.045.166-.1.227-.239.227a2.146,2.146,0,0,1-.919-.137c.3-1.5,1.023-5.491,1.686-8.876l-.106-.362a4.624,4.624,0,0,1,1.158-.166,6.086,6.086,0,0,1,.769,1.641l2.167,5.7c.992-2.467,2.165-5.371,2.813-6.907Z" transform="translate(47.174 14.496)" fill="#fff"/>
      <path id="Path_3" data-name="Path 3" d="M56.912,21.18c.031.616-.346.933-.962.933a1.052,1.052,0,0,1-1.054-.947,2.681,2.681,0,0,1-1.925.947,1.7,1.7,0,0,1-1.745-1.7c0-1.625,2.105-2.062,2.918-2.242.272-.059.557-.121.753-.149v-.452a1.261,1.261,0,0,0-1.3-1.383,2.847,2.847,0,0,0-1.534.554c-.405.166-.616-.18-.647-.554a4.045,4.045,0,0,1,2.467-1.009,2.213,2.213,0,0,1,2.257,2.512c0,.647-.059,2.091-.045,3.01a.467.467,0,0,0,.512.481,1.7,1.7,0,0,0,.286-.031ZM53.5,21.135a1.575,1.575,0,0,0,1.279-.708.8.8,0,0,0,.106-.5V18.757c-1.219.194-2.377.6-2.377,1.444a.925.925,0,0,0,.992.933" transform="translate(53.582 15.874)" fill="#fff"/>
      <path id="Path_4" data-name="Path 4" d="M54.512,15.733a1.209,1.209,0,0,1,.812-.557c.452,0,.722.542.722,1.5.466-.992,1.129-1.5,1.821-1.5a1.048,1.048,0,0,1,.767.315,1.556,1.556,0,0,1-.286.843.361.361,0,0,1-.421.106,1.218,1.218,0,0,0-.481-.076c-.331,0-.829.3-1.144,1.037a2.034,2.034,0,0,0-.166.812V21.6c0,.227-.045.331-.27.362a8.752,8.752,0,0,1-1.054.059c.045-.542.045-1.43.045-2.768V16.741c0-.466-.076-.784-.346-.949Z" transform="translate(57.019 15.873)" fill="#fff"/>
      <path id="Path_5" data-name="Path 5" d="M61.123,21.357a.814.814,0,0,1-.256.857,2.356,2.356,0,0,1-1.414.407,1.744,1.744,0,0,1-1.866-1.987V16.753c-.511,0-.722-.166-.722-.317a9.38,9.38,0,0,1,1.309-1.369,1.374,1.374,0,0,1,.767-.376c-.031.483-.061.857-.061,1.174h2.392c-.149.753-.464.812-.737.827a14.242,14.242,0,0,1-1.67.045,37.853,37.853,0,0,0,0,3.793c.076.9.571,1.127,1.082,1.127a2.222,2.222,0,0,0,1.129-.315Z" transform="translate(59.48 15.366)" fill="#fff"/>
      <path id="Path_6" data-name="Path 6" d="M65.081,21.18c.031.616-.346.933-.962.933a1.052,1.052,0,0,1-1.054-.947,2.681,2.681,0,0,1-1.925.947,1.7,1.7,0,0,1-1.745-1.7c0-1.625,2.105-2.062,2.918-2.242.272-.059.557-.121.753-.149v-.452a1.261,1.261,0,0,0-1.3-1.383,2.847,2.847,0,0,0-1.534.554c-.405.166-.616-.18-.647-.554a4.045,4.045,0,0,1,2.467-1.009,2.213,2.213,0,0,1,2.257,2.512c0,.647-.059,2.091-.045,3.01a.467.467,0,0,0,.511.481,1.7,1.7,0,0,0,.286-.031Zm-3.415-.045a1.575,1.575,0,0,0,1.279-.708.8.8,0,0,0,.106-.5V18.757c-1.219.194-2.377.6-2.377,1.444a.925.925,0,0,0,.992.933" transform="translate(62.127 15.874)" fill="#fff"/>
      <path id="Path_7" data-name="Path 7" d="M71.014,14.221c.436,1.354,1.324,4.468,2.122,7.419,1.234-3.822,2.2-6.682,2.527-7.781a4.572,4.572,0,0,1,.753.092c.241.059.3.194.18.587-.886,2.693-2,5.778-2.9,8.245-.121.315-.2.45-.331.54a2.482,2.482,0,0,1-.872.166c-.376-1.369-1.234-4.423-2.122-7.507-.466,1.594-1.655,5.461-2.032,6.754-.1.362-.2.528-.376.618a2.453,2.453,0,0,1-.812.135c-.947-3.024-1.956-6.455-3.069-9.344a3.3,3.3,0,0,1,1.113-.286c.225,0,.3.151.557,1.009.528,1.717,1.34,4.3,2,6.742.421-1.5,1.264-4.364,2.122-7.118a3.345,3.345,0,0,0-.076-.421,2.45,2.45,0,0,1,.933-.211c.151,0,.211.121.286.362" transform="translate(67.025 14.495)" fill="#fff"/>
      <path id="Path_8" data-name="Path 8" d="M72.265,14.421a.732.732,0,0,1-.722.767.682.682,0,0,1-.722-.737.752.752,0,0,1,.751-.767.675.675,0,0,1,.694.737m-.076,8.712c0,.27-.076.346-.3.376a7.52,7.52,0,0,1-1.009.076c.016-.6.045-1.475.045-2.363V18.678c0-.917-.029-1.383-.059-1.7a4.949,4.949,0,0,1,1.113-.149c.151,0,.211.076.211.933Z" transform="translate(74.078 14.312)" fill="#fff"/>
      <path id="Path_9" data-name="Path 9" d="M76.138,17.48c.031.27-.149.692-.5.677a2.6,2.6,0,0,0-1.1-.286.914.914,0,0,0-1.023.857,1,1,0,0,0,.647.888c.391.211.9.436,1.34.694a1.694,1.694,0,0,1,.976,1.518A2.191,2.191,0,0,1,74.032,23.9a2.8,2.8,0,0,1-1.625-.45.476.476,0,0,1-.256-.393.9.9,0,0,1,.3-.63,3.041,3.041,0,0,0,1.67.557c.753,0,1.144-.376,1.144-.9,0-.36-.211-.647-.739-.917-.405-.211-.782-.376-1.142-.573a1.838,1.838,0,0,1-1.054-1.655,2.079,2.079,0,0,1,2.257-1.97,2.319,2.319,0,0,1,1.549.511m-.27-3.656c.09.076.09.135-.045.3a25.969,25.969,0,0,0-1.61,2.077,1.222,1.222,0,0,1-.407-.241c-.059-.076-.074-.166.031-.421.241-.585.949-2.06,1.219-2.077a1.273,1.273,0,0,1,.812.362" transform="translate(75.47 14.08)" fill="#fff"/>
      <path id="Path_10" data-name="Path 10" d="M79.462,17.93c0-1.158-.542-1.745-1.4-1.745a2.278,2.278,0,0,0-1.7.919v4.483c0,.3-.059.346-.315.376a7.443,7.443,0,0,1-1.009.059c.031-.54.045-1.428.045-2.768V16.71c0-.557-.059-.8-.256-.947V15.7a1.2,1.2,0,0,1,.827-.528c.466,0,.6.694.649,1.129a3.337,3.337,0,0,1,2.226-1.129c1.731,0,2.2,1.3,2.2,2.74v2.105c0,.874.031,1.506.059,1.88a7.6,7.6,0,0,1-1.113.121c-.166,0-.225-.074-.225-.211Z" transform="translate(78.27 15.873)" fill="#fff"/>
      <path id="Path_11" data-name="Path 11" d="M80.126,14.421a.732.732,0,0,1-.722.767.682.682,0,0,1-.722-.737.752.752,0,0,1,.751-.767.675.675,0,0,1,.694.737m-.076,8.712c0,.27-.076.346-.3.376a7.519,7.519,0,0,1-1.009.076c.016-.6.045-1.475.045-2.363V18.678c0-.917-.029-1.383-.059-1.7a4.949,4.949,0,0,1,1.113-.149c.151,0,.211.076.211.933Z" transform="translate(82.301 14.312)" fill="#fff"/>
      <path id="Path_12" data-name="Path 12" d="M85.383,20.76a1.338,1.338,0,0,1-.573,1.023,3.34,3.34,0,0,1-1.475.329c-2.091,0-3.235-1.248-3.235-3.355,0-1.895,1.144-3.58,3.13-3.58a2.386,2.386,0,0,1,2.482,2.484,2.2,2.2,0,0,1-.045.466c-.059.256-.767.45-1.293.526A28.7,28.7,0,0,1,81.4,18.7a2.194,2.194,0,0,0,2.271,2.408,4.254,4.254,0,0,0,1.686-.376ZM81.44,17.885c1.082.045,2.437.014,2.709,0a.308.308,0,0,0,.315-.317,1.4,1.4,0,0,0-1.4-1.608c-.767,0-1.5.677-1.625,1.925" transform="translate(83.784 15.873)" fill="#fff"/>
      <path id="Path_13" data-name="Path 13" d="M84.558,15.447c.452,1.4.933,2.965,1.5,5,.663-2,1.009-3,1.506-4.485-.031-.121-.076-.286-.106-.376a2.96,2.96,0,0,1,.919-.239c.18,0,.241.18.376.616.286,1.023.737,2.437,1.338,4.409,1.023-3.024,1.475-4.423,1.7-5.191a2.2,2.2,0,0,1,.843.18c.166.1.166.315-.031.843-.661,1.85-1.172,3.265-1.94,5.3-.106.3-.18.421-.407.5a4.285,4.285,0,0,1-.767.121c-.571-1.956-.9-2.965-1.475-4.814-.284.917-1.172,3.4-1.459,4.258-.09.239-.166.36-.346.421a4.48,4.48,0,0,1-.784.135c-.3-.919-.827-2.633-1.4-4.274-.438-1.234-.708-1.925-.874-2.316a2.753,2.753,0,0,1,1.1-.346c.166,0,.241.09.3.27" transform="translate(86.984 15.874)" fill="#fff"/>
      <path id="Path_14" data-name="Path 14" d="M92.156,15.687c.031.27-.153.692-.5.677a2.58,2.58,0,0,0-1.1-.286.915.915,0,0,0-1.023.857,1.007,1.007,0,0,0,.647.888c.393.211.9.436,1.34.694a1.7,1.7,0,0,1,.98,1.518,2.194,2.194,0,0,1-2.455,2.077,2.8,2.8,0,0,1-1.625-.45.476.476,0,0,1-.256-.393.921.921,0,0,1,.3-.632,3.039,3.039,0,0,0,1.672.559c.751,0,1.142-.376,1.142-.9,0-.36-.211-.647-.737-.917-.405-.211-.782-.376-1.142-.573a1.838,1.838,0,0,1-1.054-1.655,2.078,2.078,0,0,1,2.255-1.97,2.333,2.333,0,0,1,1.553.511" transform="translate(92.221 15.873)" fill="#fff"/>
      <path id="Path_15" data-name="Path 15" d="M92.241,20.227c.933-.857,2.648-2.709,3.175-3.28a3,3,0,0,1,.767.09c.27.09.3.194-.121.647-.618.663-1.61,1.594-2.453,2.422a36.4,36.4,0,0,0,3.114,3.5l-.014.047a2.218,2.218,0,0,1-.933.164,1.116,1.116,0,0,1-.919-.464,38.712,38.712,0,0,1-2.617-3.01v2.993c0,.3-.09.376-.362.407a8.471,8.471,0,0,1-.947.045c.031-.6.045-1.489.045-2.754V15.365c0-.9-.031-1.352-.059-1.67a3.793,3.793,0,0,1,1.113-.211c.149,0,.211.076.211.978Z" transform="translate(95.099 14.104)" fill="#fff"/>
      <path id="Path_16" data-name="Path 16" d="M99.713,21.18c.031.616-.346.933-.962.933a1.052,1.052,0,0,1-1.054-.947,2.682,2.682,0,0,1-1.927.947,1.7,1.7,0,0,1-1.743-1.7c0-1.625,2.105-2.062,2.918-2.242.27-.059.557-.121.753-.149v-.452a1.261,1.261,0,0,0-1.3-1.383,2.847,2.847,0,0,0-1.534.554c-.405.166-.616-.18-.647-.554a4.04,4.04,0,0,1,2.467-1.009,2.213,2.213,0,0,1,2.257,2.512c0,.647-.059,2.091-.045,3.01a.467.467,0,0,0,.512.481,1.7,1.7,0,0,0,.286-.031ZM96.3,21.135a1.575,1.575,0,0,0,1.279-.708.8.8,0,0,0,.106-.5V18.757c-1.219.194-2.377.6-2.377,1.444a.925.925,0,0,0,.992.933" transform="translate(98.352 15.874)" fill="#fff"/>
      <path id="Path_17" data-name="Path 17" d="M105.811,20.768a11.146,11.146,0,0,0-.076-1.715,6.527,6.527,0,0,1,1.158-.225c.166,0,.241.088.241.405v3.445a4.966,4.966,0,0,1-1.054.6,6.882,6.882,0,0,1-2.06.346c-2.648,0-5.221-1.234-5.221-4.859a4.962,4.962,0,0,1,5.281-5,4.774,4.774,0,0,1,3.055.859c0,.419-.331.782-.692.692A5.044,5.044,0,0,0,104,14.751a3.634,3.634,0,0,0-3.761,3.912,3.78,3.78,0,0,0,4.018,4.078,4.061,4.061,0,0,0,1.549-.286Z" transform="translate(103.343 14.403)" fill="#fff"/>
      <path id="Path_18" data-name="Path 18" d="M105.207,14.421a.732.732,0,0,1-.722.767.682.682,0,0,1-.722-.737.752.752,0,0,1,.751-.767.675.675,0,0,1,.694.737m-.076,8.712c0,.27-.076.346-.3.376a7.519,7.519,0,0,1-1.009.076c.014-.6.045-1.475.045-2.363V18.678c0-.917-.031-1.383-.059-1.7a4.949,4.949,0,0,1,1.113-.149c.149,0,.211.076.211.933Z" transform="translate(108.535 14.312)" fill="#fff"/>
      <path id="Path_19" data-name="Path 19" d="M105.02,21.555c.5-.708,2.693-3.9,3.49-5.356h-2.453c-.63,0-.931-.09-.886-.317a1.49,1.49,0,0,1,.405-.675c.182.1.452.121,1.309.121h3.175a2.3,2.3,0,0,1-.227.886c-.256.542-1.8,3-2.993,4.8a24.061,24.061,0,0,0,3.642,0,1.239,1.239,0,0,1-.393.753c-.225.151-.647.18-1.94.18a18.555,18.555,0,0,1-2.965-.135Z" transform="translate(109.85 15.904)" fill="#fff"/>
      <path id="Path_20" data-name="Path 20" d="M113.728,21.18c.031.616-.346.933-.962.933a1.052,1.052,0,0,1-1.054-.947,2.682,2.682,0,0,1-1.927.947,1.7,1.7,0,0,1-1.743-1.7c0-1.625,2.105-2.062,2.918-2.242.27-.059.557-.121.753-.149v-.452a1.261,1.261,0,0,0-1.3-1.383,2.847,2.847,0,0,0-1.534.554c-.405.166-.616-.18-.647-.554a4.04,4.04,0,0,1,2.467-1.009,2.213,2.213,0,0,1,2.257,2.512c0,.647-.059,2.091-.045,3.01a.467.467,0,0,0,.512.481,1.7,1.7,0,0,0,.286-.031Zm-3.415-.045a1.575,1.575,0,0,0,1.279-.708.8.8,0,0,0,.1-.5V18.757c-1.217.194-2.375.6-2.375,1.444a.925.925,0,0,0,.992.933" transform="translate(113.011 15.874)" fill="#fff"/>
      <path id="Path_21" data-name="Path 21" d="M47.448,18.782H45.083l-5.6-16.1h3.331l3.6,10.962L50.345,2.535h1.739L55.8,13.64,59.665,2.678H63l-5.962,16.1H54.667L51.141,8.57Z" transform="translate(41.297 2.65)" fill="#fff"/>
      <path id="Path_22" data-name="Path 22" d="M59.483,5.539h2.946V15.994H59.483V14.641a3.749,3.749,0,0,1-3.21,1.69,5.306,5.306,0,0,1-5.336-5.577A5.229,5.229,0,0,1,56.128,5.2a3.784,3.784,0,0,1,3.355,1.69Zm-5.5,5.215a2.9,2.9,0,1,0,5.794,0,2.9,2.9,0,1,0-5.794,0" transform="translate(53.28 5.439)" fill="#fff"/>
      <path id="Path_23" data-name="Path 23" d="M57.922,5.539h2.946V7.108a3.52,3.52,0,0,1,1.3-1.449A3.192,3.192,0,0,1,63.909,5.2a3.625,3.625,0,0,1,1.256.241l-.387,2.752A2.2,2.2,0,0,0,63.4,7.808a2.406,2.406,0,0,0-1.956.845,3.584,3.584,0,0,0-.579,2.318v5.021H57.922Z" transform="translate(60.586 5.439)" fill="#fff"/>
      <path id="Path_24" data-name="Path 24" d="M68.083,8.027a2.448,2.448,0,0,0-1.715-.7c-.7,0-1.133.338-1.133.845,0,.266.121.675.941.941l.7.217a5.365,5.365,0,0,1,2.656,1.5,3.035,3.035,0,0,1,.532,1.739A3.471,3.471,0,0,1,68.9,15.22a4.385,4.385,0,0,1-3.139,1.111,5.28,5.28,0,0,1-4.055-1.737l1.545-1.788a3.236,3.236,0,0,0,2.318,1.207c.82,0,1.449-.409,1.449-1.133a1.163,1.163,0,0,0-.919-1.062l-.675-.241a5.621,5.621,0,0,1-2.244-1.256,2.8,2.8,0,0,1-.8-2A3.107,3.107,0,0,1,63.472,5.95,4.325,4.325,0,0,1,66.2,5.2a5.222,5.222,0,0,1,3.331,1.111Z" transform="translate(64.548 5.439)" fill="#fff"/>
      <path id="Path_25" data-name="Path 25" d="M71.43,13.309h5.528v2.51H66.264L72.2,7.877H67.18V5.366H77.369Z" transform="translate(69.311 5.612)" fill="#fff"/>
      <path id="Path_26" data-name="Path 26" d="M76.3,9.7v7.943H73.356V9.7H72.2V7.194h1.158V3.619H76.3V7.194H78.33V9.7Z" transform="translate(75.518 3.785)" fill="#fff"/>
      <path id="Path_27" data-name="Path 27" d="M84.236,5.539h2.946V15.994H84.236V14.641a3.749,3.749,0,0,1-3.21,1.69,5.306,5.306,0,0,1-5.336-5.577A5.229,5.229,0,0,1,80.881,5.2a3.786,3.786,0,0,1,3.355,1.69Zm-5.5,5.215a2.9,2.9,0,1,0,5.794,0,2.9,2.9,0,1,0-5.794,0" transform="translate(79.171 5.439)" fill="#fff"/>
      <path id="Path_28" data-name="Path 28" d="M86.213,9.7v7.943H83.268V9.7h-1.16V7.194h1.16V3.619h2.944V7.194H88.24V9.7Z" transform="translate(85.885 3.785)" fill="#fff"/>
      <path id="Path_29" data-name="Path 29" d="M94.756,5.309v13.4H91.617V5.309H88V2.6H98.377v2.7Z" transform="translate(92.043 2.723)" fill="#fff"/>
      <path id="Path_30" data-name="Path 30" d="M101.414,5.539h2.946V15.994h-2.946V14.641a3.749,3.749,0,0,1-3.21,1.69,5.306,5.306,0,0,1-5.336-5.577A5.229,5.229,0,0,1,98.059,5.2a3.784,3.784,0,0,1,3.355,1.69Zm-5.5,5.215a2.9,2.9,0,1,0,5.794,0,2.9,2.9,0,1,0-5.794,0" transform="translate(97.139 5.439)" fill="#fff"/>
      <path id="Path_31" data-name="Path 31" d="M99.853,8.662H102.8v1.352a3.835,3.835,0,0,1,3.235-1.69A4,4,0,0,1,109.123,9.6a4.406,4.406,0,0,1,.82,2.946v6.566H107v-5.7a2.989,2.989,0,0,0-.557-2.052,1.883,1.883,0,0,0-1.375-.532,2.008,2.008,0,0,0-1.811.917,3.611,3.611,0,0,0-.458,2.03v5.334H99.853Zm8.812-5.095L105.044,6.8l-1.352-.966,2.85-3.621Z" transform="translate(104.446 2.316)" fill="#fff"/>
      <path id="Path_32" data-name="Path 32" d="M114.295,8.726a3.4,3.4,0,0,0-2.414-.917,2.809,2.809,0,0,0-2.946,2.944,2.913,2.913,0,0,0,3.042,2.971,3.411,3.411,0,0,0,2.318-.919v2.875a5.99,5.99,0,0,1-2.7.651,5.9,5.9,0,0,1-4.031-1.52,5.364,5.364,0,0,1-1.665-4.008,5.585,5.585,0,0,1,1.809-4.25A5.58,5.58,0,0,1,111.469,5.2a6.257,6.257,0,0,1,2.826.628Z" transform="translate(110.764 5.439)" fill="#fff"/>
      <path id="Path_33" data-name="Path 33" d="M119.371,5.539h2.946V15.994h-2.946V14.641a3.749,3.749,0,0,1-3.21,1.69,5.306,5.306,0,0,1-5.336-5.577A5.229,5.229,0,0,1,116.016,5.2a3.784,3.784,0,0,1,3.355,1.69Zm-5.5,5.215a2.9,2.9,0,1,0,5.794,0,2.9,2.9,0,1,0-5.794,0" transform="translate(115.922 5.439)" fill="#fff"/>
    </g>
  </g>
</svg>
