<svg xmlns="http://www.w3.org/2000/svg" width="136.356" height="30.359" viewBox="0 0 136.356 30.359">
  <g id="Group_39" data-name="Group 39" transform="translate(-1684 -37)">
    <g id="Facebook" transform="translate(1737 37)">
      <g id="Group_30" data-name="Group 30">
        <path id="Path_39" data-name="Path 39" d="M1149.558,1260.557a15.179,15.179,0,1,1,15.179-15.179A15.194,15.194,0,0,1,1149.558,1260.557Zm0-29.341a14.161,14.161,0,1,0,14.161,14.162A14.177,14.177,0,0,0,1149.558,1231.216Z" transform="translate(-1134.381 -1230.198)" fill="#fff"/>
      </g>
      <g id="Group_31" data-name="Group 31" transform="translate(11.55 7.318)">
        <path id="Path_40" data-name="Path 40" d="M1144.537,1251.314h3.166v-7.93h2.209l.235-2.655H1147.7v-1.512c0-.625.126-.873.731-.873h1.713v-2.755h-2.192c-2.356,0-3.419,1.037-3.419,3.024v2.116h-1.646v2.689h1.646Z" transform="translate(-1142.891 -1235.59)" fill="#fff"/>
      </g>
    </g>
    <g id="Linnkdin" transform="translate(1790 37)">
      <g id="Group_23" data-name="Group 23">
        <g id="Group_22" data-name="Group 22">
          <path id="Path_36" data-name="Path 36" d="M1149.558,1213.531a15.179,15.179,0,1,1,15.179-15.178A15.194,15.194,0,0,1,1149.558,1213.531Zm0-29.339a14.161,14.161,0,1,0,14.161,14.161A14.175,14.175,0,0,0,1149.558,1184.192Z" transform="translate(-1134.381 -1183.174)" fill="#fff"/>
        </g>
      </g>
      <g id="Group_28" data-name="Group 28" transform="translate(8.659 7.923)">
        <g id="Group_26" data-name="Group 26">
          <g id="Group_24" data-name="Group 24" transform="translate(0.259 4.348)">
            <rect id="Rectangle_14" data-name="Rectangle 14" width="2.692" height="8.696" fill="#fff"/>
          </g>
          <g id="Group_25" data-name="Group 25">
            <path id="Path_37" data-name="Path 37" d="M1142.353,1192.222a1.6,1.6,0,1,0-1.592-1.605A1.6,1.6,0,0,0,1142.353,1192.222Z" transform="translate(-1140.761 -1189.012)" fill="#fff"/>
          </g>
        </g>
        <g id="Group_27" data-name="Group 27" transform="translate(4.671 4.082)">
          <path id="Path_38" data-name="Path 38" d="M1146.786,1196.417c0-1.223.562-1.952,1.64-1.952.991,0,1.466.7,1.466,1.952v4.564h2.679v-5.506c0-2.329-1.321-3.455-3.164-3.455a3.033,3.033,0,0,0-2.621,1.437v-1.171H1144.2v8.7h2.583Z" transform="translate(-1144.203 -1192.02)" fill="#fff"/>
        </g>
      </g>
    </g>
    <g id="Instagram" transform="translate(1684 37)">
      <g id="Group_34" data-name="Group 34">
        <g id="Group_33" data-name="Group 33">
          <path id="Path_41" data-name="Path 41" d="M1149.558,1166.506a15.179,15.179,0,1,1,15.179-15.177A15.193,15.193,0,0,1,1149.558,1166.506Zm0-29.339a14.161,14.161,0,1,0,14.161,14.162A14.176,14.176,0,0,0,1149.558,1137.167Z" transform="translate(-1134.381 -1136.149)" fill="#fff"/>
        </g>
      </g>
      <g id="Group_38" data-name="Group 38" transform="translate(8.045 8.047)">
        <g id="Group_35" data-name="Group 35">
          <path id="Path_42" data-name="Path 42" d="M1147.441,1143.363c1.9,0,2.13.008,2.883.042a3.92,3.92,0,0,1,1.323.246,2.2,2.2,0,0,1,.821.533,2.239,2.239,0,0,1,.533.82,3.967,3.967,0,0,1,.246,1.324c.034.752.041.977.041,2.881s-.007,2.131-.041,2.883a3.959,3.959,0,0,1-.246,1.323,2.357,2.357,0,0,1-1.354,1.354,3.959,3.959,0,0,1-1.323.246c-.753.034-.978.041-2.883.041s-2.129-.007-2.881-.041a3.961,3.961,0,0,1-1.325-.246,2.224,2.224,0,0,1-.82-.533,2.2,2.2,0,0,1-.533-.821,3.928,3.928,0,0,1-.246-1.323c-.035-.752-.042-.977-.042-2.883s.007-2.129.042-2.881a3.936,3.936,0,0,1,.246-1.324,2.36,2.36,0,0,1,1.353-1.353,3.922,3.922,0,0,1,1.325-.246c.752-.034.977-.042,2.881-.042m0-1.285c-1.937,0-2.18.01-2.94.043a5.279,5.279,0,0,0-1.732.331,3.644,3.644,0,0,0-2.086,2.086,5.217,5.217,0,0,0-.331,1.732c-.035.76-.043,1-.043,2.94s.008,2.18.043,2.941a5.208,5.208,0,0,0,.331,1.73,3.644,3.644,0,0,0,2.086,2.086,5.244,5.244,0,0,0,1.732.333c.76.034,1,.042,2.94.042s2.18-.008,2.941-.042a5.241,5.241,0,0,0,1.73-.333,3.643,3.643,0,0,0,2.086-2.086,5.211,5.211,0,0,0,.331-1.73c.035-.761.043-1,.043-2.941s-.008-2.18-.043-2.94a5.22,5.22,0,0,0-.331-1.732,3.643,3.643,0,0,0-2.086-2.086,5.277,5.277,0,0,0-1.73-.331c-.761-.034-1-.043-2.941-.043" transform="translate(-1140.309 -1142.078)" fill="#fff"/>
        </g>
        <g id="Group_36" data-name="Group 36" transform="translate(3.47 3.47)">
          <path id="Path_43" data-name="Path 43" d="M1146.528,1144.635a3.662,3.662,0,1,0,3.663,3.662,3.662,3.662,0,0,0-3.663-3.662m0,6.039a2.377,2.377,0,1,1,2.378-2.378,2.377,2.377,0,0,1-2.378,2.378" transform="translate(-1142.866 -1144.635)" fill="#fff"/>
        </g>
        <g id="Group_37" data-name="Group 37" transform="translate(10.084 2.47)">
          <path id="Path_44" data-name="Path 44" d="M1149.45,1144.753a.856.856,0,1,1-.856-.855.857.857,0,0,1,.856.855" transform="translate(-1147.739 -1143.898)" fill="#fff"/>
        </g>
      </g>
    </g>
  </g>
</svg>
